<?xml version="1.0" encoding="UTF-8"?>
<svg xmlns="http://www.w3.org/2000/svg" height="55555555555555555555555555555555555555555555555555555555555555555555555555555" width="55555555555555555555555555555555555555555555555555555555555555555555555555555" class="pyqrcode"><path transform="scale(5)" stroke="#000" class="pyqrline" d="M4 4.5h7m1 0h5m2 0h1m2 0h2m1 0h3m1 0h3m1 0h2m2 0h7m1 0h7m2 0h1m1 0h1m1 0h1m1 0h1m1 0h3m1 0h7m-69 1h1m5 0h1m3 0h1m1 0h3m4 0h1m1 0h2m5 0h1m1 0h1m5 0h4m2 0h5m3 0h2m1 0h1m1 0h1m6 0h1m5 0h1m-69 1h1m1 0h3m1 0h1m2 0h1m1 0h4m1 0h1m3 0h2m1 0h5m1 0h1m1 0h2m4 0h3m1 0h1m1 0h4m7 0h1m3 0h1m3 0h1m1 0h3m1 0h1m-69 1h1m1 0h3m1 0h1m1 0h3m2 0h1m2 0h1m2 0h2m2 0h2m1 0h2m4 0h12m1 0h1m1 0h1m1 0h2m2 0h2m2 0h1m2 0h1m1 0h1m1 0h3m1 0h1m-69 1h1m1 0h3m1 0h1m2 0h1m3 0h1m1 0h3m4 0h2m1 0h4m1 0h1m1 0h9m4 0h2m1 0h1m1 0h1m2 0h6m1 0h1m1 0h1m1 0h3m1 0h1m-69 1h1m5 0h1m4 0h1m1 0h1m1 0h1m1 0h3m6 0h1m3 0h1m1 0h1m3 0h2m1 0h2m3 0h4m1 0h3m1 0h2m1 0h3m3 0h1m5 0h1m-69 1h7m1 0h1m1 0h1m1 0h1m1 0h1m1 0h1m1 0h1m1 0h1m1 0h1m1 0h1m1 0h1m1 0h1m1 0h1m1 0h1m1 0h1m1 0h1m1 0h1m1 0h1m1 0h1m1 0h1m1 0h1m1 0h1m1 0h1m1 0h1m1 0h1m1 0h1m1 0h1m1 0h1m1 0h7m-60 1h2m1 0h1m1 0h2m5 0h1m1 0h1m3 0h3m2 0h1m3 0h2m1 0h2m4 0h1m2 0h1m2 0h3m1 0h3m-56 1h1m1 0h3m1 0h1m2 0h2m1 0h2m2 0h1m1 0h1m1 0h1m1 0h1m1 0h1m1 0h3m1 0h5m3 0h1m3 0h1m1 0h1m1 0h1m1 0h1m1 0h1m2 0h2m4 0h1m3 0h1m2 0h1m-68 1h1m2 0h1m2 0h1m1 0h1m1 0h1m1 0h3m1 0h1m4 0h1m2 0h4m2 0h4m1 0h3m2 0h5m1 0h2m2 0h3m2 0h1m2 0h1m1 0h1m1 0h1m2 0h1m1 0h1m-69 1h3m2 0h4m1 0h1m4 0h1m2 0h1m1 0h3m1 0h1m2 0h1m3 0h1m3 0h1m6 0h1m4 0h2m4 0h1m2 0h1m3 0h1m3 0h2m1 0h2m-68 1h1m1 0h2m3 0h1m1 0h8m1 0h6m2 0h1m1 0h1m1 0h3m3 0h1m1 0h1m4 0h2m1 0h2m1 0h4m2 0h2m3 0h2m1 0h1m-64 1h1m1 0h4m2 0h4m2 0h1m3 0h1m1 0h1m2 0h1m1 0h1m1 0h3m1 0h1m1 0h1m2 0h1m2 0h2m2 0h9m1 0h3m1 0h1m2 0h2m1 0h1m2 0h2m-67 1h1m1 0h1m2 0h1m2 0h2m2 0h1m1 0h1m1 0h4m1 0h1m5 0h2m2 0h3m1 0h4m1 0h2m4 0h1m2 0h1m1 0h1m1 0h1m1 0h1m3 0h1m3 0h1m1 0h2m-67 1h3m1 0h7m2 0h5m2 0h1m3 0h1m1 0h1m2 0h1m1 0h1m3 0h3m1 0h2m4 0h1m3 0h2m1 0h3m2 0h3m4 0h1m1 0h1m-68 1h1m5 0h1m2 0h2m4 0h3m8 0h2m4 0h2m2 0h1m1 0h1m2 0h1m4 0h3m1 0h3m1 0h2m4 0h1m1 0h5m-68 1h1m1 0h3m1 0h2m1 0h1m3 0h2m3 0h2m1 0h1m2 0h6m5 0h1m5 0h4m1 0h1m1 0h1m1 0h4m1 0h4m2 0h1m2 0h2m2 0h1m-69 1h5m4 0h1m1 0h1m3 0h4m1 0h2m2 0h5m3 0h1m1 0h6m1 0h1m1 0h1m3 0h1m1 0h1m5 0h3m3 0h1m1 0h3m1 0h2m-69 1h7m5 0h2m1 0h2m1 0h1m3 0h2m1 0h3m2 0h2m3 0h1m4 0h5m3 0h1m2 0h1m3 0h3m8 0h3m-69 1h1m2 0h3m1 0h1m1 0h3m3 0h1m2 0h2m1 0h1m1 0h2m1 0h1m3 0h1m3 0h1m1 0h1m2 0h1m4 0h2m1 0h3m1 0h2m1 0h4m1 0h1m1 0h1m1 0h2m-62 1h1m1 0h2m6 0h1m3 0h1m2 0h2m1 0h6m1 0h3m1 0h4m1 0h1m1 0h4m1 0h3m1 0h1m1 0h2m2 0h3m5 0h1m1 0h1m-60 1h1m1 0h1m1 0h1m4 0h1m1 0h3m2 0h1m1 0h1m1 0h4m3 0h1m3 0h1m5 0h2m9 0h3m5 0h1m4 0h1m-69 1h3m1 0h3m1 0h1m2 0h1m1 0h2m2 0h2m2 0h3m1 0h1m2 0h4m1 0h3m3 0h1m2 0h2m2 0h3m1 0h1m1 0h2m3 0h1m1 0h3m2 0h5m-67 1h1m2 0h1m1 0h4m1 0h3m1 0h2m1 0h1m1 0h1m2 0h1m1 0h2m1 0h3m9 0h5m1 0h2m1 0h1m1 0h2m1 0h3m2 0h2m1 0h2m3 0h1m-68 1h1m1 0h1m2 0h3m2 0h1m2 0h4m2 0h1m2 0h1m6 0h2m1 0h2m2 0h2m2 0h2m3 0h3m1 0h3m1 0h1m1 0h1m1 0h1m3 0h4m1 0h1m-68 1h2m1 0h1m3 0h3m4 0h1m3 0h1m4 0h2m4 0h1m2 0h1m2 0h2m1 0h1m1 0h2m1 0h1m1 0h1m5 0h1m1 0h1m1 0h1m1 0h1m1 0h1m1 0h1m1 0h1m2 0h3m-68 1h7m3 0h1m1 0h2m1 0h6m1 0h1m1 0h1m2 0h1m1 0h1m2 0h3m3 0h1m1 0h1m5 0h3m1 0h1m4 0h1m6 0h3m2 0h1m-68 1h2m4 0h2m1 0h1m6 0h2m1 0h3m6 0h3m1 0h2m3 0h1m2 0h1m1 0h1m1 0h2m1 0h2m1 0h2m2 0h3m1 0h6m2 0h1m-68 1h1m1 0h1m3 0h1m2 0h1m3 0h1m1 0h1m1 0h1m2 0h1m1 0h1m2 0h3m2 0h2m2 0h2m1 0h1m1 0h2m1 0h1m2 0h1m1 0h2m1 0h3m1 0h1m1 0h1m1 0h1m4 0h2m3 0h1m-69 1h3m4 0h2m2 0h1m1 0h4m6 0h4m1 0h3m1 0h2m4 0h1m2 0h1m1 0h1m3 0h1m1 0h1m3 0h1m1 0h1m3 0h1m1 0h1m4 0h1m1 0h1m-66 1h4m1 0h1m2 0h2m1 0h1m1 0h1m2 0h1m3 0h3m2 0h3m3 0h1m13 0h1m2 0h1m1 0h1m2 0h1m1 0h1m1 0h1m3 0h2m2 0h1m-69 1h2m1 0h3m2 0h1m1 0h1m1 0h2m1 0h3m2 0h3m1 0h4m2 0h1m1 0h2m1 0h2m1 0h2m2 0h8m1 0h2m3 0h4m1 0h3m1 0h1m1 0h1m-68 1h1m1 0h1m1 0h5m1 0h1m1 0h1m2 0h1m1 0h1m1 0h2m4 0h1m1 0h3m2 0h5m3 0h2m1 0h6m1 0h1m1 0h1m2 0h2m2 0h6m3 0h1m-68 1h4m3 0h2m1 0h2m1 0h1m2 0h1m4 0h1m2 0h1m3 0h2m1 0h1m3 0h2m3 0h2m4 0h1m1 0h1m1 0h1m5 0h1m1 0h2m3 0h1m1 0h3m-69 1h3m1 0h1m1 0h1m1 0h1m3 0h1m1 0h1m2 0h1m1 0h2m1 0h1m1 0h1m3 0h5m1 0h1m1 0h1m3 0h3m1 0h1m2 0h2m3 0h1m2 0h2m1 0h3m1 0h1m1 0h1m1 0h3m-68 1h4m3 0h4m1 0h2m3 0h1m1 0h1m6 0h1m1 0h2m1 0h1m3 0h2m1 0h1m2 0h3m1 0h4m1 0h3m1 0h3m1 0h2m3 0h1m2 0h1m-68 1h2m2 0h6m1 0h1m3 0h2m1 0h6m1 0h1m4 0h8m2 0h1m1 0h1m1 0h1m2 0h4m1 0h1m1 0h5m1 0h5m2 0h2m-65 1h2m4 0h3m3 0h1m1 0h2m3 0h2m4 0h1m1 0h1m1 0h3m1 0h1m1 0h1m2 0h1m1 0h1m1 0h1m1 0h1m2 0h1m1 0h1m1 0h2m2 0h1m1 0h2m2 0h1m1 0h2m-67 1h1m2 0h2m1 0h1m1 0h1m2 0h1m1 0h1m1 0h2m5 0h4m1 0h1m2 0h1m1 0h3m1 0h6m2 0h1m5 0h1m2 0h1m4 0h1m1 0h1m1 0h1m1 0h1m1 0h1m-69 1h4m1 0h1m3 0h1m2 0h4m3 0h1m2 0h4m2 0h1m6 0h1m2 0h6m1 0h4m2 0h3m1 0h3m2 0h2m1 0h1m3 0h1m-67 1h1m1 0h2m1 0h2m1 0h1m3 0h2m1 0h3m3 0h3m2 0h1m3 0h2m4 0h3m3 0h1m4 0h5m1 0h1m1 0h1m3 0h1m1 0h1m3 0h1m1 0h1m-69 1h3m1 0h2m6 0h1m6 0h1m1 0h1m1 0h1m2 0h2m1 0h2m1 0h2m1 0h2m2 0h1m1 0h1m1 0h1m1 0h1m1 0h1m4 0h2m1 0h2m6 0h1m1 0h1m1 0h2m-68 1h1m1 0h1m2 0h4m1 0h5m5 0h1m1 0h1m1 0h2m1 0h2m2 0h2m3 0h1m1 0h2m1 0h5m1 0h2m1 0h1m8 0h3m3 0h1m1 0h1m-68 1h3m1 0h1m3 0h2m2 0h2m1 0h1m1 0h4m1 0h1m3 0h1m1 0h1m1 0h5m3 0h1m2 0h2m3 0h3m1 0h3m1 0h3m1 0h1m1 0h2m1 0h2m-65 1h2m3 0h3m3 0h1m3 0h1m1 0h4m1 0h1m1 0h2m3 0h1m3 0h1m3 0h1m3 0h5m1 0h1m1 0h1m1 0h1m1 0h3m1 0h1m1 0h1m1 0h1m4 0h1m-68 1h1m2 0h3m5 0h4m4 0h1m2 0h2m1 0h3m2 0h1m3 0h1m1 0h1m2 0h3m1 0h3m1 0h1m3 0h2m3 0h2m1 0h1m1 0h1m1 0h1m3 0h2m-69 1h3m2 0h3m1 0h1m2 0h2m1 0h1m2 0h1m1 0h2m8 0h4m1 0h6m1 0h2m4 0h3m3 0h1m1 0h1m3 0h3m1 0h5m-69 1h2m3 0h1m2 0h4m1 0h1m1 0h1m1 0h1m2 0h1m3 0h2m3 0h2m2 0h1m2 0h2m1 0h1m2 0h1m1 0h2m2 0h1m1 0h3m1 0h2m1 0h1m5 0h1m1 0h1m1 0h2m-69 1h1m5 0h1m4 0h3m2 0h1m2 0h2m1 0h1m3 0h1m1 0h1m2 0h1m1 0h1m7 0h1m1 0h1m1 0h1m1 0h3m2 0h2m1 0h2m1 0h1m1 0h1m1 0h1m2 0h1m1 0h2m-67 1h2m4 0h2m2 0h3m2 0h1m1 0h8m1 0h1m1 0h3m2 0h6m1 0h3m6 0h1m3 0h1m1 0h1m3 0h1m3 0h4m-69 1h1m5 0h1m2 0h3m3 0h2m1 0h1m2 0h1m1 0h1m1 0h5m1 0h1m8 0h1m2 0h1m2 0h4m2 0h1m3 0h1m2 0h4m2 0h4m-69 1h1m3 0h2m1 0h4m1 0h2m1 0h3m3 0h1m2 0h2m3 0h1m3 0h4m3 0h1m3 0h10m1 0h2m7 0h2m1 0h2m-66 1h2m1 0h1m2 0h1m1 0h2m1 0h1m3 0h1m2 0h1m1 0h1m1 0h4m1 0h1m1 0h3m1 0h1m2 0h1m1 0h1m1 0h1m1 0h1m1 0h6m3 0h3m1 0h1m3 0h2m2 0h1m-69 1h1m3 0h2m1 0h2m5 0h2m1 0h4m2 0h1m1 0h1m1 0h1m3 0h5m2 0h1m1 0h2m2 0h1m7 0h1m2 0h3m1 0h1m1 0h1m1 0h1m1 0h1m1 0h2m-67 1h3m1 0h2m2 0h4m1 0h2m2 0h1m1 0h1m1 0h2m1 0h2m6 0h1m1 0h2m1 0h1m1 0h2m1 0h2m1 0h1m1 0h1m2 0h1m3 0h2m3 0h2m1 0h1m1 0h3m-69 1h2m2 0h1m2 0h1m1 0h2m1 0h1m3 0h5m3 0h2m2 0h1m1 0h1m3 0h1m1 0h2m2 0h1m1 0h4m1 0h3m2 0h2m2 0h1m4 0h1m1 0h1m1 0h1m-66 1h3m1 0h1m1 0h1m1 0h1m1 0h1m1 0h1m3 0h4m1 0h1m2 0h2m1 0h3m1 0h2m1 0h1m3 0h1m3 0h1m1 0h1m3 0h1m1 0h5m1 0h3m2 0h2m1 0h1m-65 1h1m4 0h1m1 0h1m1 0h1m2 0h1m1 0h2m1 0h1m1 0h1m3 0h7m3 0h1m1 0h1m2 0h1m1 0h1m1 0h2m3 0h1m1 0h1m5 0h1m3 0h1m2 0h2m1 0h1m2 0h1m-69 1h1m1 0h1m1 0h3m3 0h1m1 0h1m5 0h2m1 0h2m1 0h1m3 0h2m3 0h5m1 0h2m1 0h3m3 0h1m3 0h1m3 0h2m3 0h2m4 0h2m-69 1h1m6 0h3m3 0h5m2 0h1m1 0h1m1 0h1m1 0h1m1 0h1m2 0h1m1 0h2m4 0h3m1 0h1m4 0h2m1 0h1m3 0h1m2 0h1m2 0h2m1 0h1m-65 1h1m2 0h2m1 0h2m1 0h3m4 0h1m4 0h1m1 0h1m1 0h1m1 0h1m1 0h1m2 0h5m1 0h2m1 0h1m3 0h1m1 0h3m2 0h5m1 0h1m1 0h6m1 0h2m-61 1h2m2 0h2m1 0h1m3 0h1m2 0h1m2 0h1m1 0h2m3 0h1m3 0h3m1 0h1m2 0h1m1 0h1m5 0h2m2 0h1m3 0h2m3 0h2m1 0h2m-69 1h7m4 0h2m1 0h1m2 0h1m1 0h1m3 0h1m2 0h1m2 0h1m1 0h2m1 0h1m1 0h2m1 0h2m2 0h6m7 0h2m2 0h1m1 0h1m1 0h2m2 0h1m-69 1h1m5 0h1m1 0h4m1 0h3m1 0h1m3 0h3m1 0h2m3 0h1m1 0h1m3 0h1m1 0h1m1 0h1m1 0h2m3 0h2m3 0h6m1 0h2m3 0h1m2 0h1m-68 1h1m1 0h3m1 0h1m1 0h2m1 0h1m1 0h1m2 0h2m1 0h2m1 0h2m1 0h3m2 0h8m1 0h1m5 0h1m1 0h2m3 0h1m3 0h1m1 0h1m1 0h6m2 0h1m-69 1h1m1 0h3m1 0h1m3 0h6m2 0h4m1 0h1m1 0h4m1 0h3m1 0h1m2 0h3m1 0h1m1 0h2m4 0h1m3 0h1m2 0h1m2 0h3m2 0h2m1 0h1m-68 1h1m1 0h3m1 0h1m1 0h1m5 0h1m1 0h5m2 0h1m1 0h6m1 0h2m3 0h1m1 0h1m5 0h5m4 0h1m3 0h1m1 0h5m1 0h1m1 0h1m-69 1h1m5 0h1m4 0h1m1 0h2m1 0h2m2 0h1m1 0h1m1 0h1m1 0h1m3 0h2m3 0h1m2 0h1m1 0h1m4 0h5m2 0h2m1 0h1m1 0h1m1 0h1m7 0h1m-68 1h7m2 0h3m2 0h6m1 0h10m2 0h1m1 0h1m2 0h4m1 0h4m1 0h1m1 0h7m1 0h1m1 0h2m1 0h2m1 0h3"/></svg>
